/* XPM */
static char * Gold_xpm[] = {
"64 64 6 1",
" 	c None",
".	c #161C2E",
"+	c #E9F044",
"@	c #CEA554",
"#	c #FFFFFF",
"$	c #AC7A58",
"                                                                ",
"                                                                ",
"                                                                ",
"                                                                ",
"                                                                ",
"                                                                ",
"                                                                ",
"                                                                ",
"                                           .....                ",
"                                           .......              ",
"                                           ..+.....             ",
"                                           ..++++...            ",
"                                           ..++++++..           ",
"                                         ....+@@++++..          ",
"                                        .....+@@@++@@..         ",
"                                        ......@@++@@@...        ",
"                                       ...###...+@@@@@..        ",
"                                ..........####...@@.....        ",
"                              .............####.......          ",
"                            ......++++++....###+....            ",
"                           .....+++####+++....+++...            ",
"                           ....+++#######++@...++...            ",
"                          ....++++#######+++@.......            ",
"                          ....++++#######+++@......             ",
"                         ...++++++###$$##+++@@....              ",
"                       .....++++++##$$$##++++@@@..              ",
"                   ........+++.....$$$###++++@@@...             ",
"                  .......$$@@.......$$$++++++@@@...             ",
"                 .....++@@$@....@@..$$$++++++@@@...             ",
"                ...+++++@@@@...@@@+++$$$+++++@@@@..             ",
"               ...+####+++@@....@@++++++++++@@@@@..             ",
"              ...++####+++@@.....@@+++++++++@@@@@..             ",
"              ..++#####+++++........+++++++@@@@@$..             ",
"             ...++#####+$$++++.......@@++++@@@$$$..             ",
"             ...++###+++$$$++...+@...@@@@@@@@$$$$..             ",
"             ..@++++++++$$$$...++@@..@@$$$$$$$$$$..             ",
"             ..@@++++++++$$$...+++...@@@$$$$$$$$...             ",
"             ..@@+++++++++$$$$.......++@@$$$$$$...              ",
"             ..@@+++++++++$$$$$$$...++++@@$$$$....              ",
"             ..@@++++++++$$$$$$$$...++++@@$$$.....              ",
"             ..@@@+++++++$$$++++++++++++@@$$$$$...              ",
"             ..@@@@++++++$$+++++++++++++@@$$$$$$...             ",
"              ..@@@@++++++++++++++++++++@@$$$$$$...             ",
"              ..@@@@@++++++++++++++++++@@@$$$$$$...             ",
"              ...@@@@@@@++++++++++++++@@@$$$$$$....             ",
"               ..@@@@@@@@@@+++++++++@@@@@$$$$$$...              ",
"               ...@@@@@@@@@@@@@@@@@@@@@@$$$$$$....              ",
"                ...@@@@@@@@@@@@@@@@@@@@$$$$$$....               ",
"                 ...$@@@@@@@@@@@@@@@@$$$$$$......               ",
"                  ....$$@@@@@@@@@@@$$$$$$.......                ",
"                   .......$$$@@@$$$$..........                  ",
"                     .....................                      ",
"                         ............                           ",
"                                                                ",
"                                                                ",
"                                                                ",
"                                                                ",
"                                                                ",
"                                                                ",
"                                                                ",
"                                                                ",
"                                                                ",
"                                                                ",
"                                                                "};
