/* XPM */
static char * border_xpm[] = {
"64 64 5 1",
" 	c #679175",
".	c #9BB94E",
"+	c #79A863",
"@	c #BFBA5B",
"#	c #161C2E",
"      ...   .+++++.++++++++..++++...+++++.......................",
"@@     ######++++++++++++++#######............... ####..   ...@@",
"@@@@  ########+####+++++++###+++####.####.......########    .@@@",
"@@@@@###@@@@#########.+#####+++++##########... ####@@@###@  @@@@",
"@@@@@##@@@@@@###############++++++###@@@#####  ###@@@@@###@@@@@@",
"+++@@##@@@@@@###...#####..###+++++##@@@@@@@###@##@@@@@@@##@@@@@@",
"++++@##@@@@@@@#......##....+#++++##@@@@@@@@@#####@@@@@@@##@@@@@+",
"+++++###@@@@@@#......##....+++++@#@@@@@@@@@@@##@@@@@@@@@##++++++",
"+++######@@..........##....@@@@@@@@@@@@@@@@@@##@@@@@@@@@##++++++",
"++########............##..@@..@@@@@@@@@@@@@@###@@@@@@@#####+++++",
"+###@@@###................@....@@@@@@@@...@###@..@@@########.+++",
".##@@@@@@#.........................@@@.....#@......@##..@@###+++",
".##@@@@@@@@.........................@@.....@............@@@##++.",
".##@@@@@@..................................@............@@@##...",
".##@@.......++++++.........................................##...",
".###....##+++++++++.++++......@@@...................##....###...",
"..#######++++++++++++++++...@@@@@@..........+++.......######....",
"...#####+++++++++++++++++@@@@@@@@@@@@@+++..+++++.......#####....",
"..###....++.....++++++++++++@@@@@@@@@+++++++..+++......+##......",
"..##.............+++...+++++++@@@+++++..+++....+++....++##......",
"..##.............++..................................++++####...",
"..##..................................++.....++++....++++##.##  ",
" ..##..................      ...   .+++++.++++++++..+++++#...## ",
"  #####.     ..   ...@@@@     .     +++++++++++++++++++###....# ",
" #######           .@@@@@@@      @@  +++++++++++++++++###.....#@",
"@###@@@###@@   @@  @@@@@@@@@    @@@@  @@+++..++...++++.......##@",
"@##@@@@@@@@@@@@@@@@@@@@@@@@@@  @@@@@@@@@@++........+++++++...#@@",
"@##@@@@@@@@@@@@@@@@@@@@+++@@@@ @@..@@@@@@@@........++++++++++#@@",
"@##@@@@@@@+++@@@@@@@@@+++++@@@@@....@@@@@@@@@......+++++@@@###@@",
"+##@@.@@+++++++@@+++++++++++++...........@@@......++@@@@######++",
"++##........+++++++++++++++++++++........................###@+++",
"+++##...........++++++++++++++++++++...++++++.............####++",
"++.####.............+++++++++++++++++++++++++.............##.##+",
"++######........+++++++...+++++++++++++++@@@+............##...#+",
"+###@@@....+++++++++++.....+++++++......@@@@@...........##....#+",
"+##@@@@@...................++++.....@@..@@@@@@................#+",
".##.@@@@@.........................@@@@@@@@@@@@...............##.",
".##..............................@@@@@@@@+++@@@@@@.........###..",
".###............................+++++++++++++@@@@@@@@@@+#####...",
"..######.......................+++++..+++++++++++++++++++###....",
"....###.....................++++++.....++++++++++++++++++####...",
"+++++##...................................+++++++++++++++..##..+",
"++++###....................................+++....++++++....##++",
"+++###............     ....     ......@@@..++......+........###+",
"++###...........        ..       ....@@@@@.++...............###.",
"+###...........   @@@       @@@@  ..@@@@@@@@++........##...###++",
"+##.....  ..     @@@@@@    @@@@@@@ .@@@@@@@@@.........@######+++",
"+##.....         @@@@@@@@ @@@@@@@@@@@@@@@@@@@......@@@@@@###...+",
".##....#     @@   @@@@@@@@@@@@@@@@@@@@@@@@@@@@@....@@@@@@@###...",
".##....#@   @@@@@ @@@@@@@@@@@@@@@@@@@@@@@@@@@@@............##...",
".###..###@@@@@@@@@@@@@@@@@@@@@....@@@@@++@@@@@@@@@.........##...",
"..#########@@@@@@@@@@++++@@@@......@@@++++@@@@@@@@@........##...",
"...@#####@@@@....@@@++++++..@.......++++++@@@@@@.........@###...",
".....###.@@@...+++++++++++.......+++++++++.............#####....",
"....###..@@@..+++++#+++++.......++++++++##............@####@....",
"....##+....@.#+++++#+++++++#+..+#++++..++##......#..@@@@##......",
"....##++....+#+++++##+++++##++++#+++.....##......#.......##.....",
"+...##+++++++##+++####+++##+++++##++.....###....##.......##+.+++",
"++...##++++++##########++##....+###+.....#########.......##+++++",
"++@@@###++++#######.+#####......####+...##########......###+++++",
"+++++@########+++++++..+##......##########....+####....###++++++",
"+++++++######++..+++....+##....##++######...+++++########.+++...",
"..........................######++++++++++.........#####..++....",
"...............++.....++++....+++++++++++++++..................."};
