/* XPM */
static char * Grass_Floor_xpm[] = {
"64 64 4 1",
" 	c #679175",
".	c #9BB94E",
"+	c #79A863",
"@	c #BFBA5B",
"      ...   .+++++.++++++++..++++...+++++.......................",
"@@     .     +++++++++++++++++++.................     ..   ...@@",
"@@@@      @@  ++++++++++++++++++................            .@@@",
"@@@@@    @@@@  @@+++..++...++++...............   @@@@   @@  @@@@",
"@@@@@@  @@@@@@@@@@++........++++++++++.....    @@@@@@@@@@@@@@@@@",
"+++@@@@ @@..@@@@@@@@........+++++++++++++@  @@@@@@@@@@@@@@@@@@@@",
"++++@@@@@....@@@@@@@@@......+++++@@@@@@@@@@@@@@@@@@+++@@@@@@@@@+",
"+++++++...........@@@......++@@@@@@@@@@@@......@@+++++++@@++++++",
"++++++++++...........................................+++++++++++",
"+++++++++++++...++++++...................................+++++++",
"++++++++++++++++++++++..................@@@@.................+++",
"...+++++++++++++++@@@+.................@@@@@@............+++++++",
"....+++++++......@@@@@.............@@@@@@@@@@@@@....+++++++++++.",
"....++++.....@@..@@@@@@..............@@@@...@@@@@...............",
"...........@@@@@@@@@@@@................@.....@@@@@..............",
"..........@@@@@@@@+++@@@@@@.....................................",
".........+++++++++++++@@@@@@@@@@+++.............................",
"........+++++..+++++++++++++++++++++++++........................",
".....++++++.....+++++++++++++++++++++++++++++++++...............",
"...................++++++++++++++++++++++++++...................",
"....................+++....++++++++++++.........................",
"....     ......@@@..++......+...++.........................     ",
" ..       ....@@@@@.++...................................       ",
"     @@@@  ..@@@@@@@@++.............@@@@@...............   @@@  ",
"    @@@@@@@ .@@@@@@@@@.........@@@@@@@@@@.....     ..     @@@@@@",
"@@ @@@@@@@@@@@@@@@@@@@......@@@@@@@@@@@@.....             @@@@@@",
"@@@@@@@@@@@@@@@@@@@@@@@@....@@@@@@@@@@...  .   @@     @@   @@@@@",
"@@@@@@@@@@@@@@@@@@@@@@@@................      @@@@   @@@@@ @@@@@",
"@@@@@@@....@@@@@++@@@@@@@@@.............  @@  @@@@@@@@@@@@@@@@@@",
"++@@@@......@@@++++@@@@@@@@@........@@   @@@@@@@@@@@@@@@@@@@@@++",
"+++..@.......++++++@@@@@@.........@@@@@@@@@@@@...@@@@@....@@@+++",
"+++.......+++++++++.............@@@@@@@@@@@@@.....@@@...++++++++",
"++.......+++++++++++...........@@@...@@@@@@.......@@@..+++++++++",
"++++++..++++++..+++++........@@@@.....@@@...........@..+++++++++",
"+++++++++++++.....+++++..............................+++++++++++",
"+++++++++++++..................................++++++++++...++++",
"..+++++++..++..................+++................++++++.....++.",
"....++++....++................+++++..................+++.....+..",
".......................+++...++++++............@@...............",
"......................+++++++++++++...........@@@@....@@@@......",
"....++++.............+++++++++++++++++......@@@@@@@@@@@@@@@@....",
"++++++++++..++++....+++++++++++++++++++++++@@@@@@@@@@@@@@++++..+",
"+++++++++++++++++++++++++++++++++++++++++.....@@@@@@@@@@++++++++",
"+++++++++++++++++    +++++++++++++++++.........@@@@@@.+++...++++",
"++++++++++++++++      ........    +++......@@@@@@@@@............",
"++++++++++++   +           ..       +....@@@@@@@@@@@.......+++++",
"+++++++++++                   @@@    ...@@@@@@@@@@@..........+++",
"++++++++++     @@@@    @@@@  @@@@@    @@@.....@@@@@............+",
"...+++++++   @@@@@@@  @@@@@@@@@@@@@@@@@........@@@@@.@@.........",
"...+++++    @@@@@@@@ @@@@@@@@@@@@@@@@@@..........@@@@@@@........",
"....@@@@@@ @@@@@@@@@@@@@@@@@@@@@@@@@@@@.@@@.......@@@...@.......",
"...@@..@@@@@@@@@@@@@@@@@@@@@@@@@@@@@@@@@@@@@....................",
"...@....@@@@@@@@...@@@@@..@@@@..@@@@@@@@@@@@...@@...............",
"............@@@.....@@......@....@@@@@@@@@@@..@@@@@.............",
".............@@.....@............@@@@@@@@@@@@@@@@@@@@@@@@@@@....",
"....................@............@@@@@...@@@@@@@@@..............",
".....................................................++++++.....",
"+......@@@.........................................+++++++++.+++",
"++...@@@@@@..........+++.........................+++++++++++++++",
"++@@@@@@@@@@@@@+++..+++++.......................++++++++++++++++",
"+++++@@@@@@@@@+++++++..+++......+++...........++++++.....+++++++",
"+++++++@@@+++++..+++....+++....+++++...++...+++++++.......+++...",
"..............................++++++++++++................++....",
"...............++.....++++....+++++++++++++++..................."};
