/* XPM */
static char * meat_xpm[] = {
"64 64 129 2",
"  	c #679175",
". 	c #9BB94E",
"+ 	c #79A863",
"@ 	c #BFBA5B",
"# 	c #161C2E",
"$ 	c #EF515C",
"% 	c #F9856C",
"& 	c #B45076",
"* 	c #6C965A",
"= 	c #8BA648",
"- 	c #56784C",
"; 	c #98954D",
"> 	c #615F3B",
", 	c #FFFFFF",
"' 	c #6C6A3E",
") 	c #FFBC88",
"! 	c #D5B583",
"~ 	c #977B6B",
"{ 	c #608653",
"] 	c #6E843F",
"^ 	c #586A39",
"/ 	c #849E46",
"( 	c #93B04B",
"_ 	c #7C9443",
": 	c #62763C",
"< 	c #A8A452",
"[ 	c #B3AE56",
"} 	c #4D6C47",
"| 	c #456042",
"1 	c #EFE1AB",
"2 	c #A7A252",
"3 	c #B7B258",
"4 	c #7E7B44",
"5 	c #ABA754",
"6 	c #75A360",
"7 	c #324638",
"8 	c #585739",
"9 	c #868347",
"0 	c #709C5D",
"a 	c #76A461",
"b 	c #384E3B",
"c 	c #3E4B33",
"d 	c #3C543D",
"e 	c #618753",
"f 	c #74A15F",
"g 	c #9AB84E",
"h 	c #2D3F36",
"i 	c #445335",
"j 	c #404D34",
"k 	c #576939",
"l 	c #88A348",
"m 	c #98B64D",
"n 	c #605E3B",
"o 	c #485835",
"p 	c #414F34",
"q 	c #6B803E",
"r 	c #94B14C",
"s 	c #3E563E",
"t 	c #555438",
"u 	c #525137",
"v 	c #535238",
"w 	c #4B5B36",
"x 	c #4C5C36",
"y 	c #506037",
"z 	c #87A247",
"A 	c #2B3D3D",
"B 	c #575639",
"C 	c #4D4D36",
"D 	c #3A4633",
"E 	c #505037",
"F 	c #5D5C3A",
"G 	c #5C5B3A",
"H 	c #565538",
"I 	c #516237",
"J 	c #5E713B",
"K 	c #7C9544",
"L 	c #99B74D",
"M 	c #465535",
"N 	c #3F4C33",
"O 	c #435134",
"P 	c #4B5A36",
"Q 	c #506137",
"R 	c #6E6C3F",
"S 	c #737141",
"T 	c #716F40",
"U 	c #727040",
"V 	c #838045",
"W 	c #7D9644",
"X 	c #B5B057",
"Y 	c #304441",
"Z 	c #4E5F37",
"` 	c #475635",
" .	c #455435",
"..	c #546638",
"+.	c #5C6F3A",
"@.	c #64793C",
"#.	c #7D7A44",
"$.	c #7A7843",
"%.	c #8C8948",
"&.	c #B6B157",
"*.	c #BEB95B",
"=.	c #ABA653",
"-.	c #354B45",
";.	c #888547",
">.	c #7A7742",
",.	c #63773C",
"'.	c #667A3D",
").	c #61753B",
"!.	c #62753C",
"~.	c #7C7A43",
"{.	c #B2AD56",
"].	c #65793C",
"^.	c #6A7F3E",
"/.	c #7F9844",
"(.	c #8DA849",
"_.	c #93AF4B",
":.	c #6F8540",
"<.	c #7E9744",
"[.	c #7F9845",
"}.	c #AEA955",
"|.	c #AFAA55",
"1.	c #94B04B",
"2.	c #B1AC56",
"3.	c #BDB85A",
"4.	c #ACA854",
"5.	c #AEAA55",
"6.	c #B1AD56",
"7.	c #B4AF57",
"8.	c #B5B157",
"            . . .       . + + + + + . + + + + + + + + . . + + + + . . . + + + + + . . . . . . . . . . . . . . . . . . . . . . . ",
"@ @           .           + + + + + + + + + + + + + + + + + + + . . . . . . . . . . . . . . . . .           . .       . . . @ @ ",
"@ @ @ @             @ @     + + + + + + + + + + + + + + + + + + . . . . . . . . . . . . . . . .                         . @ @ @ ",
"@ @ @ @ @         @ @ @ @     @ @ + + + . . + + . . . + + + + . . . . . . . . . . . . . . .       @ @ @ @       @ @     @ @ @ @ ",
"@ @ @ @ @ @     @ @ @ @ @ @ @ @ @ @ + + . . . . . . . . + + + + + + + + + + . . . . .         @ @ @ @ @ @ @ @ @ @ @ @ @ @ @ @ @ ",
"+ + + @ @ @ @   @ @ . . @ @ @ @ @ @ @ @ . . . . . . . . + + + + + + + + + + + + + @     @ @ @ @ @ @ @ @ @ @ @ @ @ @ @ @ @ @ @ @ ",
"+ + + + @ @ @ @ @ . . . . @ @ @ @ @ @ @ @ @ . . . . . . + + + + + @ @ @ @ @ @ @ @ @ @ @ @ @ @ @ @ @ @ + + + @ @ @ @ @ @ @ @ @ + ",
"+ + + + + + + . . . . . . . . . . . @ @ @ . . . . . . + + @ @ @ @ @ @ @ @ @ @ @ @ . . . . . . @ @ + + + + + + + @ @ + + + + + + ",
"+ + + + + + + + + + . . . . . . . . . . . . . . . . . . . . . . . . . . . . . . . . . . . . . . . . . . . + + + + + + + + + + + ",
"+ + + + + + + + + + + + + . . . + + + + + + . . . . . . . . . . . . . . . . . . . . . . . . . . . . . . . . . . . + + + + + + + ",
"+ + + + + + + + + + + + + + + + + + + + + + . . . . . . . . . . . . . . . . . . @ @ @ @ . . . . . . . . . . . . . . . . . + + + ",
". . . + + + + + + + + + + + + + + + @ @ @ + . . . . . . . . . . . . . . . . . @ @ @ @ @ @ . . . . . . . . . . . . + + + + + + + ",
". . . . + + + + + + + . . . . . . @ @ @ @ @ . . . . . . . . . . . . . @ @ @ @ @ @ @ @ @ @ @ @ @ . . . . + + + + + + + + + + + . ",
". . . . + + + + . . . . . @ @ . . @ @ @ @ @ @ . . . . . . . . . . . . . . @ @ @ @ . . . @ @ @ @ @ . . . . . . . . . . . . . . . ",
". . . . . . . . . . . @ @ @ @ @ @ @ @ @ @ @ @ . . . . . . . # # # # # # # # # # # # # . . @ @ @ @ @ . . . . . . . . . . . . . . ",
". . . . . . . . . . @ @ @ @ @ @ @ @ + + + @ @ @ @ @ @ # # # # # # # # # # # # # # # # # # # # . . . . . . . . . . . . . . . . . ",
". . . . . . . . . + + + + + + + + + + + + + @ @ @ # # # # # # # # # $ $ % % % $ $ $ # # # # # # . . . . . . . . . . . . . . . . ",
". . . . . . . . + + + + + . . + + + + + + + + + # # # # # # $ $ $ $ $ $ % % % $ $ $ $ $ $ # # # # # . . . . . . . . . . . . . . ",
". . . . . + + + + + + . . . . . + + + + + + + # # # # $ $ $ $ $ & & & & & % % $ $ $ $ $ $ $ $ # # # # . . . . . . . . . . . . . ",
". . . . . . . . . . . . . . . . . . . + + + # # # # $ $ $ $ & & & & & & & & % $ & & & $ $ $ $ $ # # # # # . . . . . . . . . . . ",
". . . . . . . . . . . . . . . . . . . . + * # # # $ $ $ & & & & & & & & & & % $ & & & & $ $ $ $ $ # # # # # . . . . . . . . . . ",
". . . .           . . . . . . @ @ @ . . * # # # $ $ $ $ & & & & & & & & & & $ $ $ & & & $ $ $ $ $ % % # # # . . . . .           ",
"  . .               . . . . @ @ @ @ @ = - # # % $ $ $ $ & & $ $ & & & & # # # # # $ & & $ $ $ $ $ % % $ # # # . .               ",
"          @ @ @ @     . . @ @ @ @ @ @ ; > # # % $ $ $ $ $ $ $ $ $ $ $ # # , , , # # $ $ $ $ $ $ % % % $ # # # #       @ @ @     ",
"        @ @ @ @ @ @ @   . @ @ @ @ @ @ ' # # % % ) $ $ $ $ $ $ $ $ $ # # , , , , ! # # $ $ $ $ ) % % $ $ $ # # #     @ @ @ @ @ @ ",
"@ @   @ @ @ @ @ @ @ @ @ @ @ @ @ @ @ @ > # # % % ) ) $ $ $ $ $ $ $ $ # # , , ~ ~ ! # # ) ) ) ) ) % % $ $ $ $ # #     @ @ @ @ @ @ ",
"@ @ @ @ @ @ @ @ @ @ @ @ @ @ @ @ @ @ # # # & & % ) ) $ $ $ % % ) ) % # # ! ~ ~ ~ ! # # ) ) ) % % $ $ $ $ $ $ # #       @ @ @ @ @ ",
"@ @ @ @ @ @ @ @ @ @ @ @ @ @ @ @ @ # # # & & & & % ) ) % % % % ) ) % # # # ! ! ! # # # % % $ $ $ $ & & & $ $ # # @ @   @ @ @ @ @ ",
"@ @ @ @ @ @ @ . . . . @ @ @ @ # # # # $ $ & & & $ ) ) % $ $ $ $ $ $ $ # # # # # # # $ $ $ & & $ & & & & $ $ # # @ @ @ @ @ @ @ @ ",
"+ + @ @ @ @ . . . . . . @ # # # # $ $ $ $ & & & % ) ) % & & & $ $ $ $ $ # # # # # $ $ $ & & & & & & & & & $ # # # @ @ @ @ @ + + ",
"+ + + . . @ . . . . . # # # # # $ $ $ $ $ $ & & ) ) ) & & & & $ $ $ $ $ $ $ $ % % % $ $ & & & & & & & & & $ # # # . @ @ @ + + + ",
"+ + + . . . . . . . # # # # $ $ $ $ $ $ $ $ $ $ ) ) & & & & $ $ $ $ $ $ $ $ $ % % % % $ & & & & & & & & & $ # # # + + + + + + + ",
"+ + . . . . . . . # # # # $ $ $ $ $ $ $ $ $ $ ) ) ) & & & & $ $ $ $ $ $ $ $ $ $ $ % % $ $ & & & & & & & $ $ # # # + + + + + + + ",
"+ + + + + + . . + # # # $ $ $ $ $ $ $ $ $ $ $ ) ) % & & $ $ $ $ $ $ & & & $ $ $ $ % % % $ & & & & & & $ $ # # # # + + + + + + + ",
"+ + + + + + + + # # # # % % % $ $ $ $ $ $ $ ) ) ) & & $ $ $ $ $ & & & & & & $ $ $ % % % $ $ & & & $ $ # # # # # # + + + + + + + ",
"+ + + + + + + * # # # $ % % ) ) $ $ $ % % % $ $ $ $ $ $ $ & & & & & & & & & $ $ $ $ % % $ $ $ $ $ $ $ # # # ~ # # . . . + + + + ",
". . + + + + { { # # $ $ $ ) ) ) ) ) % % % % $ $ $ $ $ $ $ & & & & & % % & & $ $ $ $ ) ) $ $ $ $ $ # # # # ~ ~ # # . . . . + + . ",
". . . . + { - - # # $ $ $ $ $ ) ) ) % % $ $ $ $ % $ $ $ & & & & & % % % & & $ $ $ $ ) ) $ $ $ $ ~ ~ ~ ~ ~ ~ # # # . . . . + . . ",
". . . . = ] ] ^ # # $ $ & & & & $ $ $ $ $ $ $ $ % % $ $ & & & & & % % % & & $ $ $ % ) ) $ # ~ ~ ~ ~ ~ ~ ~ ~ # # / ( . . . . . . ",
". . . . _ ] : ^ # # # $ & & & & & & $ $ $ $ $ % % % $ & & & & # # # # # # # $ $ $ % % % # ~ ~ ~ ~ ! ! ~ ~ ~ # # < [ . . . . . . ",
". . . . { - } | # # # $ $ & & & & & & $ $ $ $ $ % % & & # # # # # # # ~ ~ ~ ~ ~ ~ # # # # ~ 1 1 ! ! ! ~ ~ # # # 2 3 @ @ . . . . ",
"+ + + + { - } | # # # $ $ $ & & & & & & $ $ $ $ % # # # # # # # ~ ~ ~ ! ~ ~ ~ ~ ~ # # # 1 1 1 1 ! ! ! ~ # # # 4 5 6 + + + . . + ",
"+ + + + { - } 7 # # # # # # $ $ & & & & $ $ $ ~ ~ ~ # # ~ ~ ~ ~ ~ ~ ~ ! ! ! ! 1 1 1 1 1 1 1 1 1 ! ! # # # # 8 9 0 a + + + + + + ",
"+ + + + { - b 7 # # # # # # # $ $ $ $ $ ~ ~ ~ ~ ~ ! ! ~ ~ ~ ~ ~ ~ ~ ~ ! ! ! ! ! 1 1 1 1 1 1 1 1 1 # # # # c d e f g . . + + + + ",
"+ + + + { - b h # # # ~ # # # # # # ~ ~ ~ 1 ! ! ! ! ! ~ ~ ~ ~ ~ ~ ~ ~ ! ! ! ! ! 1 1 1 1 1 1 1 # # # # # i j k l m . . . . . . . ",
"+ + + + - - | 7 # # # ~ ~ ~ # # # # ~ ~ 1 1 1 ! ! ! ! ! # # # # # # # ! ! ! ! ! 1 1 1 # # # # # # # # n o p q r . . . + + + + + ",
"+ + + + - - | s h # # # ~ ~ ~ ~ ~ ! ! ! 1 1 1 ! ! # # # # # # # # # # # # # # # # # # # # # # # t u v w x y z g . . . . . + + + ",
"+ + + + * - | s 7 h # # # # ~ ~ ~ ! ! ! 1 1 1 # # # # # A B C C C B # # # # # # # # # # D j E F G 8 H I J K L . . . . . . . . + ",
". . . + * * | s 7 7 A # # # # # # ! ! ! # # # # # # C C C B B C B B B B B B > M M M M N O P Q R S T U V W X @ . . . . . . . . . ",
". . . + * * { s Y A A A # # # # # # # # # # # # # B B B B ' ' ' ' > > > > > > Z M M M `  .Z ..+.@.#.$.%.&.*.@ @ . . . . . . . . ",
". . . . =.=.=.; ' > -.> > B B # # # # # # # B B B B B > ' ' ' ;.;.;.>.' ' ' ' ^ ' ' ' ,.'.).).).!.: ~.{.*.. . . @ . . . . . . . ",
". . . @ @ = = =.; ' > > > > B > > > > > > > > > > > > >.>.;.; ; ; ; ; ; ;.;.;.;.>.>.>.$.].^.^.^./.(._.g . . . . . . . . . . . . ",
". . . @ . . = = =.=.; ' ' ' ' > Z Z Z > > > ' >.: ] ;.;.; =.= = =.; ; ; ; ;.;.;.;.;.;.;.:.<.[.}.|.1.L . . . . . . . . . . . . . ",
". . . . . . . . = = = _ ;.>.>.: : : : ] ;.; _ _ = = = = =.= = = = =.=.=.=.=.=.; ; ; ; ; W (.2.[ 3 3.@ . . . . . . . . . . . . . ",
". . . . . . . . . = = = = =.=.= = = = = =.= = . . . . . . . . = = =.=.=.=.=.=.=.=.5 4.5.6.7.8.3 @ @ @ @ @ @ @ @ @ @ @ @ . . . . ",
". . . . . . . . . . . . . . . . . . . . @ . . . . . . . . . . . . @ @ @ @ @ . . . @ @ @ @ @ @ @ @ @ . . . . . . . . . . . . . . ",
". . . . . . . . . . . . . . . . . . . . . . . . . . . . . . . . . . . . . . . . . . . . . . . . . . . . . + + + + + + . . . . . ",
"+ . . . . . . @ @ @ . . . . . . . . . . . . . . . . . . . . . . . . . . . . . . . . . . . . . . . . . + + + + + + + + + . + + + ",
"+ + . . . @ @ @ @ @ @ . . . . . . . . . . + + + . . . . . . . . . . . . . . . . . . . . . . . . . + + + + + + + + + + + + + + + ",
"+ + @ @ @ @ @ @ @ @ @ @ @ @ @ + + + . . + + + + + . . . . . . . . . . . . . . . . . . . . . . . + + + + + + + + + + + + + + + + ",
"+ + + + + @ @ @ @ @ @ @ @ @ + + + + + + + . . + + + . . . . . . + + + . . . . . . . . . . . + + + + + + . . . . . + + + + + + + ",
"+ + + + + + + @ @ @ + + + + + . . + + + . . . . + + + . . . . + + + + + . . . + + . . . + + + + + + + . . . . . . . + + + . . . ",
". . . . . . . . . . . . . . . . . . . . . . . . . . . . . . + + + + + + + + + + + + . . . . . . . . . . . . . . . . + + . . . . ",
". . . . . . . . . . . . . . . + + . . . . . + + + + . . . . + + + + + + + + + + + + + + + . . . . . . . . . . . . . . . . . . . "};
