/* XPM */
static char * player_xpm[] = {
"64 64 13 1",
" 	c #679175",
".	c #9BB94E",
"+	c #79A863",
"@	c #BFBA5B",
"#	c #161C2E",
"$	c #3E8698",
"%	c #5AB3AC",
"&	c #404E75",
"*	c #D5B583",
"=	c #977B6B",
"-	c #FFFFFF",
";	c #EFE1AB",
">	c #EDE6AC",
"      ...   .+++++.++++++++..++++...+++++.......................",
"@@     .     +##$$$####+++++++++.................     ..   ...@@",
"@@@@      @@#####$#######+++++++................            .@@@",
"@@@@@    @@#####$$%%%%####.++++...............   @@@@   @@  @@@@",
"@@@@@@  @@###$$$$$%%%$$%%%$##+++++++++.....    @@@@@@@@@@@@@@@@@",
"+++@@@@ @##&&$$%%%%%$$%%%%%%##+++++++++++@  @@@@@@@@@@@@@@@@@@@@",
"++++@@@@####$$$$%%%%%%%%%%%%%#+++@@@@@@@@@@@@@@@@@@+++@@@@@@@@@+",
"+++++++###$$$$$$%%%%%%%$$%%%%$##@@@@@@@@@......@@+++++++@@++++++",
"+++++++##&&&$$$$$%%%%%%%$$%%%%##.....................+++++++++++",
"+++++++##&&$$$########%%%%#$%%$$#........................+++++++",
"+++++++##&$$$#########%%%%##%%%##.......@@@@.................+++",
"...++++##&$$$$&&&&#####%%%%##%%$##.....@@@@@@............+++++++",
"....+++###&&$$&&&&&&#####$%$##$$##.@@@@@@@@@@@@@....+++++++++++.",
"....++++##&$$$&&&&&&#####$%%##&&##...@@@@...@@@@@...............",
"........##&&&&&&&&&######&$$#$$&&#.....@.....@@@@@..............",
"..........##########+@@###$###&##...............................",
".........+#########+++@###$##$###++.............................",
"........+++++..++++##########$####++++++........................",
".....++++++.....++#######&###&#####++++++++++++++.............*.",
".................##===##&&####***###+++++++++................**.",
"...............####--------------*####+....................****.",
"....     .....#######*--------***#####....................***-# ",
" ..       ....###=####;;;;****;;;;**##................... **--# ",
"     @@@@  ..@###==**;;;;;;;-----;***#@@@...............#*---># ",
"    @@@@@@@ .@##===***;;;---------;;**#@@.....     ..  ##*--->#@",
"@@ @@@@@@@@@@##===****;;;;;;;;;;##;;;;##.....         *#>--->>#@",
"@@@@@@@@@@@@@##===****;;;;;;;;--##*;;;##.  .   @@     **>--*>>#@",
"@@@@@@@@@@@@@##===******;;;;;;;;##**;;###     @@@@   @*->-**>>#@",
"@@@@@@@....@##====*******;;;;---###**;### @@  @@@@@@@#-->-*>*>#@",
"++@@@@......##====*********;;---###**;**#@@@@@@@@@@@##-->**>*#++",
"+++..@......##====********;;;;;;###***-##@@@@@...@@@##->>**>##++",
"+#####....+###===*********;;;;--####**;###@@@.....@##>>>***###++",
"+##*##...++###====********;;;;-###########@.......###>>****##+++",
"+###**###++#####==*****###################........##>>****##++++",
"+####**###++###===****;;;#############;;##........#>>>****##++++",
"+#####**###+###===*****;;;;##########*-;##.....++##>>#****#.++++",
".#$$$##***######======****;;;;---###**;;;#......##>>=#***#...++.",
".#$$$$##***######====*****;;;;---###**-;;#......##>>=#**##...+..",
".#$$$$$$##===#####===******;;;;;-##**-;;;#.....###>=##**##......",
".#$$$$$$$$*******#####******;;;--##*;;;;######@##*#=#**##@......",
".#$$$$$$$*####>>**>>##******;;;;;#**;;;;##%%%###**##**###@@@....",
"+#$$$$%%$*****####**###*****;;;;---;;;*####$%$#***#=**##@++++..+",
"+#$$$$$$$*******##**######**;;;;;;;;**###%###$#**##=**#@++++++++",
"+#$$$$%%%>>>*****#>*#######*;;;;--;;;*###%$###***#===##++...++++",
"+#$$$$$%%%>>>****#**##########**;;;;##&&#$%$$#####==###.........",
"+#$$$$$$%%*******#**##&&#########;####&###$$$$####==####...+++++",
"+#*$$$$$%%*>>>***=**##&&&&###########&&&&#$$$$$######&###....+++",
"+#****$$$$*******=**##&$$$&&&&#####&&$&&######$$&&####&$##.....+",
".#****>>%%*******=**##&$$$$&&&&&##&&&$&&##==###&&&&&######......",
".#****>>>>$******=**##&&$$$$$$&&&&&$$&####==**####&&&&##........",
".##*****>>$$$****#**##$$$$$$$$$&&&$$$$####=****#####&&##@.......",
".##***>>>>%%$$***#**##&$$$$$$$$$$$$&&#####=*****=######.........",
"..##******%%$$$$$#=*##&&&&$$$$$$$$&#######==*****##.............",
"..##******$%%$$$$#=*##&&&&&&&&&&&&####@@###===**##@.............",
"..###*****$$$$$$$#==##################@###########@@@@@@@@@@....",
"....##****$$$$$$$#=###############@@@@.##&&#####@@..............",
".....##****$$$$$#=#######.....####.....###&##........++++++.....",
"+.....###**$$$##=##..####....#####......####.......+++++++++.+++",
"++...@@###*$$$####...+####...####................+++++++++++++++",
"++@@@@@@##*$$#=###..++####...###................++++++++++++++++",
"+++++@@@@@######+++#######..######+...........++++++.....+++++++",
"+++++++@@@#####..+++....+++....+++++...++...+++++++.......+++...",
"...........###................++++++++++++................++....",
"...............++.....++++....+++++++++++++++..................."};
