/* XPM */
static char * tower_xpm[] = {
"64 64 30 1",
" 	c #679175",
".	c #9BB94E",
"+	c #79A863",
"@	c #BFBA5B",
"#	c #161C2E",
"$	c #8FE2B9",
"%	c #5AB9BB",
"&	c #448E9F",
"*	c #435B7D",
"=	c #483F61",
"-	c #B48355",
";	c #DAB570",
">	c #866353",
",	c #5A4646",
"'	c #91AD4A",
")	c #778E42",
"!	c #7B9343",
"~	c #706E40",
"{	c #7C9443",
"]	c #4C5C36",
"^	c #343531",
"/	c #938F4B",
"(	c #5F723B",
"_	c #465435",
":	c #2B3530",
"<	c #789042",
"[	c #5B6E3A",
"}	c #476443",
"|	c #374D3B",
"1	c #5D8150",
"      ...   .+++++.++++++++..++++...+++++.......................",
"@@     .     +++++++++++++++++++.................     ..   ...@@",
"@@@@      @@  ++++++++++++++++++................            .@@@",
"@@@@@    @@@@  @@+++..++####+++.....####......   @@@@   @@  @@@@",
"@@@@@@  @@@@@@@@@@++.###$$$%++++++++$%$$$##    @@@@@@@@@@@@@@@@@",
"+++@@@@ @@..@@@@@@@@#$$$%$$$#++++++#$%%%%$$#@@@@@@@@@@@@@@@@@@@@",
"++++@@@@@....@@@@@@@#&$$$**###%%%&###**%$$&#@@@@@@@+++@@@@@@@@@+",
"+++++++...........@@#&##****#%%%%&%#****##&#...@@+++++++@@++++++",
"++++++++++..........#&&*****#**##**#**=**#&#.........+++++++++++",
"+++++++++++++..###+###&*=***=******=**=**####.###........+++++++",
"++++++++++++++#$$$#%%&#***=**==**==***=**#&%%#$$$#...........+++",
"...+++++++++++#$$%$%%&****************=***&%%$%$$#.......+++++++",
"....+++++++...$$%$#%#**=**###------###*****#%#$%$$..+++++++++++.",
"....++++.....@$$$$=#=**=##------------##***=#=$$$$#.............",
"...........@@@$$*#===**########--########**===#*$$#.............",
"..........@@@@&&&&===*#--;;;;;;;;;;;;;;;--*===&&&&#.............",
".........+++++&&&&===#--;;;;;;;;;;;;;;;;--#===&&&&#.............",
"........+++++.*&*&==##>-;;;;;;;;;;;;;;;;->##==&*&*..............",
".....++++++...#&&&=##>----;;;;;;;;;;;;---->##=%&&#..............",
"..............#&%#$$$$##-;;;;;;;;;;;;;;--#$$$$#%&#..............",
"..............#%%#$$%$$#-;;;;;;;;;;;;;--##$%$$#%%#..............",
"....     .....#*%%%&$$*&-;;;#$$%%$$#;;;-#&$$&%%%*#.........     ",
" ..       ....#&#%%%##&&-;;;$$$%$$$$;;;-#&##%%%#&#.......       ",
"     @@@@  ..@#&&&%%%%*&--;;$$$$$$$$#;--#*%%%%&&&#......   @@@  ",
"    @@@@@@@ .@#&*%%%%%&#%####$#$$%$##-#&%&%%%%%*&# ..     @@@@@@",
"@@ @@@@@@@@@@@@&&%%%%%#%%%%#%%%%%&%%#%%&%#&%%%%&&         @@@@@@",
"@@@@@@@@@@@@@@@#&&%%%%#%&%%#%%%%%%%%#&%%%#%%%%&&#     @@   @@@@@",
"@@@@@@@@@@@@@@@#&*%%&%%%&&%#%%%%%%%%&%&&%%%%%%*&#@   @@@@@ @@@@@",
"@@@@@@@....@@@@@&&&%%&&%%%%%&%%%%&%%%%%%%&&%%&&&@@@@@@@@@@@@@@@@",
"++@@@@......@@@+#&*&%%%%&%%%%%%%%%%%%%%&&%%%&*&#@@@@@@@@@@@@@@++",
"+++..@.......++++#*%%&%%%%&%&&%%&&&&%%%%%%&%%*#..@@@@@....@@@+++",
"+++.......++++++++##%%%%%%&%%%%%&%%%%%%%%%%%##....@@@...++++++++",
"++.......+++++++++++#%%&&%%&&%%%%%%&&&%%&&%#......@@@..+++++++++",
"++++++..++++++..++++###%&%%%&%%%%%%%%%%%%###........@..+++++++++",
"+++++++++++++.....++#**##%%%&%%%%%%&%%%##**#.........+++++++++++",
"+++++++++++++.......#*=***#############**=*#...++++++++++...++++",
"..+++++++..++.......#==***************=***=#......++++++.....++.",
"....++++....++......#*=***********=***=**=*#.........+++.....+..",
"....................#**=&=*===***=****=****#...@@...............",
"....................#=**&&&&********&*&&&*=#..@@@@....@@@@......",
"....++++............#=*&*&&&*&&&&&&*&&&&*==#@@@@@@@@@@@@@@@@....",
"++++++++++..++++...##=*&&&**&&*&&&&&**&&&*=##@@@@@@@@@@@@++++..+",
"++++++++++++++++++#>#=*&&&*&#;-;;-;##*&*&*=#>#@@@@@@@@@@++++++++",
"+++++++++++++++++ #>#*=*&&##;>####>;;#&&*=*#>#.@@@@@@.+++...++++",
"++++++++++++++++  #,#***&&###------##;#&&**#,#@@@@@@............",
"++++++++++++   +  #--#*&*##----------##***#--#@@@@@@.......+++++",
"+++++++++++       ##->#&&##-########--#&&*>-##@@@@@..........+++",
"++++++++++     @@@#>#;;#&#--#******##-#&&#;#>#@@@@@............+",
"...+++++++   @@@@@#>>;-;##-#**&&&&**#-##;-;>>#.@@@@@.@@.........",
"...+++++    @@@@@@#->#-;;#-#&&&&&&&&#>##;;#>-#...@@@@@@@........",
"....@@@@@@ @@@@@@@#->#>#-#-#&%&%%&&&#>#;#-#>-#....@@@...@.......",
"...@@..@@@@@@@@@@@#>>>>#-#-#&%&%%%&&#-#;;->>>#..................",
"...@....@@@@@@@@.'#>>->#-#-#&%&%%%%&#-#;;-->>#)@@...............",
"............@@@..!#>>>>>;#-#&&%%%&%&#-#;;->>>#~@@@@.............",
".............@@..{#>>>->;#-#&&%%%&%&#-#;-->>>#~@@@@@@@@@@@@@....",
".................{]#>#--;#-#*&&%&&&*#>#;#-#>#^/@@@..............",
".................!(_##-#-#-#*&&&&&&*#>#;#>##:_)......++++++.....",
"+......@@@........<[__---#>-*&&*&&&*#>#;####[).....+++++++++.+++",
"++...@@@@@@........))}|#____########___#__[))....+++++++++++++++",
"++@@@@@@@@@@@@@+++..111}}[[[_______[[[[[))).....++++++++++++++++",
"+++++@@@@@@@@@+++++++..111))))))111)))))).....++++++.....+++++++",
"+++++++@@@+++++..+++....+++....+++++...++...+++++++.......+++...",
"..............................++++++++++++................++....",
"...............++.....++++....+++++++++++++++..................."};
